<svg xmlns="http://www.w3.org/2000/svg" width="63.822" height="76.317" viewBox="0 0 63.822 76.317">
  <g id="Group_644" data-name="Group 644" transform="translate(0.999 1)">
    <path id="Path_1103" data-name="Path 1103" d="M3683.284,1848.8h0a11.425,11.425,0,0,1,11.39,11.388v4.061a11.427,11.427,0,0,1-11.39,11.39h0a11.423,11.423,0,0,1-11.389-11.39v-4.061A11.422,11.422,0,0,1,3683.284,1848.8Z" transform="translate(-3665.621 -1848.797)" fill="none" stroke="#ccc" stroke-miterlimit="2.613" stroke-width="2" fill-rule="evenodd"/>
    <path id="Path_1104" data-name="Path 1104" stroke="#ccc" d="M3686.386,1867.693a5.448,5.448,0,0,1-3.09-.973l-2.359-1.607c-4.872-3.326-12.212,2.64-12.212,8.5V1889.8" fill="none" transform="translate(-3668.724 -1833.764)" stroke-linecap="round" stroke-linejoin="round" stroke-width="2" fill-rule="evenodd"/>
    <path id="Path_1105" data-name="Path 1105" stroke="#ccc" d="M3677.65,1867.693a5.446,5.446,0,0,0,3.089-.973l2.359-1.607c4.871-3.326,12.212,2.64,12.212,8.5V1889.8" fill="none" transform="translate(-3659.988 -1833.764)" stroke-linecap="round" stroke-linejoin="round" stroke-width="2" fill-rule="evenodd"/>
    <path id="Path_1106" data-name="Path 1106" stroke="#ccc" d="M3698.651,1880.66v-18.915a19.751,19.751,0,0,1-5.942,4.114" fill="none" transform="translate(-3645.25 -1836.124)" stroke-linecap="round" stroke-linejoin="round" stroke-width="2" fill-rule="evenodd"/>
    <line id="Line_103" data-name="Line 103" x2="18.291" transform="translate(43.532 50.554)" fill="none" stroke="#ccc" stroke-linecap="round" stroke-linejoin="round" stroke-width="2"/>
    <path id="Path_1107" data-name="Path 1107" stroke="#ccc" d="M3681.481,1886.227h18.291v-11.882" fill="none" transform="translate(-3656.239 -1823.791)" stroke-linecap="round" stroke-linejoin="round" stroke-width="2" fill-rule="evenodd"/>
    <path id="Path_1108" data-name="Path 1108" stroke="#ccc" d="M3672.237,1892.231h18.291V1880.35" fill="none" transform="translate(-3665.286 -1817.914)" stroke-linecap="round" stroke-linejoin="round" stroke-width="2" fill-rule="evenodd"/>
  </g>
</svg>
